<svg xmlns="http://www.w3.org/2000/svg" version="1.1" xmlns:xlink="http://www.w3.org/1999/xlink" xmlns:svgjs="http://svgjs.dev/svgjs" width="1000" height="750" viewBox="0 0 1000 750"><rect width="1000" height="750" fill="#ed1703"></rect><g transform="matrix(0.834,0,0,0.834,83.40675578034677,107.08611012145752)"><svg viewBox="0 0 384 247" data-background-color="#ed1703" preserveAspectRatio="xMidYMid meet" height="643" width="1000" xmlns="http://www.w3.org/2000/svg" xmlns:xlink="http://www.w3.org/1999/xlink"><g id="tight-bounds" transform="matrix(1,0,0,1,-0.18728323699420457,-0.09999999999999432)"><svg viewBox="0 0 384.3745664739884 247.2" height="247.2" width="384.3745664739884"><g><svg viewBox="0 0 384.3745664739884 247.2" height="247.2" width="384.3745664739884"><g><svg viewBox="0 0 384.3745664739884 247.2" height="247.2" width="384.3745664739884"><g id="textblocktransform"><svg viewBox="0 0 384.3745664739884 247.2" height="247.2" width="384.3745664739884" id="textblock"><g><svg viewBox="0 0 384.3745664739884 247.2" height="247.2" width="384.3745664739884"><g transform="matrix(1,0,0,1,0,0)"><svg width="384.3745664739884" viewBox="0.65 -34.6 53.800000000000004 34.6" height="247.2" data-palette-color="#ffffff"><path d="M11.3-31.15L0.65-31.15 0.65-34.6 25.65-34.6 25.65-31.15 15.1-31.15 15.1 0 11.3 0 11.3-31.15ZM30.55 0L30.55-34.6 43.1-34.6Q48.25-34.6 50.82-32.48 53.4-30.35 53.4-25.8L53.4-25.8Q53.4-22.55 52.27-20.73 51.15-18.9 48.95-17.85L48.95-17.85Q54.45-15.95 54.45-9.7L54.45-9.7Q54.45-4.5 51.7-2.25 48.95 0 43.75 0L43.75 0 30.55 0ZM43.35-15.9L43.35-15.9 34.4-15.9 34.4-3.4 43.6-3.4Q47-3.4 48.77-4.83 50.55-6.25 50.55-9.85L50.55-9.85Q50.55-11.75 49.82-13.05 49.1-14.35 47.9-14.9L47.9-14.9Q45.7-15.9 43.35-15.9ZM42.95-31.2L42.95-31.2 34.4-31.2 34.4-19.25 43.3-19.25Q46.5-19.25 47.97-20.78 49.45-22.3 49.45-25.38 49.45-28.45 47.87-29.83 46.3-31.2 42.95-31.2Z" opacity="1" transform="matrix(1,0,0,1,0,0)" fill="#ffffff" class="wordmark-text-0" data-fill-palette-color="primary" id="text-0"></path></svg></g></svg></g></svg></g></svg></g><g></g></svg></g><defs></defs></svg><rect width="384.3745664739884" height="247.2" fill="none" stroke="none" visibility="hidden"></rect></g></svg></g></svg>