<svg width="221.7767150878906px" height="121.24555969238281px" xmlns="http://www.w3.org/2000/svg" viewBox="139.1116424560547 14.377220153808594 221.7767150878906 121.24555969238281" style="background:rgb(29,181,147)" preserveAspectRatio="xMidYMid"><defs><linearGradient id="editing-shadow-gradient1" x1="0" x2="0" y1="0" y2="1"><stop offset="0" stop-color="#000000" stop-opacity="0"></stop><stop offset="0.2" stop-color="#000000" stop-opacity="0"></stop><stop offset="1" stop-color="#000000" stop-opacity="1"></stop></linearGradient><linearGradient id="editing-shadow-gradient2" x1="-0.2547095802227721" x2="1.2547095802227721" y1="-0.15605902899050716" y2="1.1560590289905073"><stop offset="0" stop-color="#ffffff"></stop><stop offset="1" stop-color="#fec918"></stop></linearGradient><filter id="editing-shadow" x="-100%" y="-100%" width="300%" height="300%"><feGaussianBlur stdDeviation="2"></feGaussianBlur><feComposite operator="in" in2="SourceGraphic"></feComposite><feGaussianBlur stdDeviation="1"></feGaussianBlur></filter></defs><g transform="translate(250,75)"><g transform="translate(-20.4, -1.2)"><g transform="skewX(45)"><g filter="url(#editing-shadow)"><g transform="translate(-37.79000234603882, 22.46500015258789)"><path d="M6.21-31.17L6.21-31.17L6.21-31.17Q4.03-32.83 4.03-36.38L4.03-36.38L4.03-36.38Q4.03-39.94 6.37-41.79L6.37-41.79L6.37-41.79Q8.70-43.65 12.74-43.65L12.74-43.65L12.74-43.65Q15.30-43.65 21.38-42.75L21.38-42.75L25.73-42.11L25.73-42.11Q27.90-41.86 30.18-41.86L30.18-41.86L30.18-41.86Q32.45-41.86 33.98-42.82L33.98-42.82L33.98-42.82Q36.29-40.77 36.29-37.82L36.29-37.82L36.29-37.82Q36.29-34.88 33.66-32.77L33.66-32.77L33.66-32.77Q30.98-30.53 27.52-30.53L27.52-30.53L27.52-30.53Q25.86-30.53 23.17-30.98L23.17-30.98L23.17-30.98Q20.03-21.12 20.03-14.27L20.03-14.27L20.03-14.27Q20.03-7.42 23.49-3.84L23.49-3.84L23.49-3.84Q21.89-0.96 19.52 0.16L19.52 0.16L19.52 0.16Q17.15 1.28 13.60 1.28L13.60 1.28L13.60 1.28Q10.05 1.28 7.84-0.67L7.84-0.67L7.84-0.67Q5.63-2.62 5.63-6.66L5.63-6.66L5.63-6.66Q5.63-11.33 8.19-19.01L8.19-19.01L8.19-19.01Q10.75-26.62 14.59-32.45L14.59-32.45L14.59-32.45Q12.74-32.64 10.82-32.64L10.82-32.64L10.82-32.64Q6.85-32.64 6.21-31.17ZM33.60-0.32L33.60-0.32L41.66-42.24L41.66-42.24Q49.22-42.88 54.08-42.88L54.08-42.88L54.08-42.88Q58.94-42.88 62.08-42.46L62.08-42.46L62.08-42.46Q65.22-42.05 67.33-40.96L67.33-40.96L67.33-40.96Q71.55-38.91 71.55-33.28L71.55-33.28L71.55-33.28Q71.55-30.02 68.74-27.26L68.74-27.26L68.74-27.26Q66.11-24.77 63.23-24.19L63.23-24.19L63.23-24.19Q66.30-23.68 68.48-21.38L68.48-21.38L68.48-21.38Q70.78-18.94 70.78-15.17L70.78-15.17L70.78-15.17Q70.78-7.87 65.34-3.62L65.34-3.62L65.34-3.62Q59.90 0.64 49.22 0.64L49.22 0.64L49.22 0.64Q41.86 0.64 33.60-0.32ZM51.01-20.61L47.81-4.03L47.81-4.03Q48.38-3.97 48.51-3.97L48.51-3.97L49.09-3.97L49.09-3.97Q54.34-3.97 56.58-7.42L56.58-7.42L56.58-7.42Q58.24-10.11 58.24-15.04L58.24-15.04L58.24-15.04Q58.24-17.66 56.54-19.07L56.54-19.07L56.54-19.07Q54.85-20.48 51.01-20.61L51.01-20.61ZM60.74-33.22L60.74-33.22L60.74-33.22Q60.74-38.53 55.62-38.53L55.62-38.53L55.04-38.53L55.04-38.53Q54.78-38.53 54.40-38.46L54.40-38.46L51.84-24.96L52.48-24.96L52.48-24.96Q60.74-25.15 60.74-33.22Z" fill="url(#editing-shadow-gradient1)"></path></g></g></g></g><g><g transform="translate(-37.79000234603882, 22.46500015258789)"><path d="M6.21-31.17L6.21-31.17L6.21-31.17Q4.03-32.83 4.03-36.38L4.03-36.38L4.03-36.38Q4.03-39.94 6.37-41.79L6.37-41.79L6.37-41.79Q8.70-43.65 12.74-43.65L12.74-43.65L12.74-43.65Q15.30-43.65 21.38-42.75L21.38-42.75L25.73-42.11L25.73-42.11Q27.90-41.86 30.18-41.86L30.18-41.86L30.18-41.86Q32.45-41.86 33.98-42.82L33.98-42.82L33.98-42.82Q36.29-40.77 36.29-37.82L36.29-37.82L36.29-37.82Q36.29-34.88 33.66-32.77L33.66-32.77L33.66-32.77Q30.98-30.53 27.52-30.53L27.52-30.53L27.52-30.53Q25.86-30.53 23.17-30.98L23.17-30.98L23.17-30.98Q20.03-21.12 20.03-14.27L20.03-14.27L20.03-14.27Q20.03-7.42 23.49-3.84L23.49-3.84L23.49-3.84Q21.89-0.96 19.52 0.16L19.52 0.16L19.52 0.16Q17.15 1.28 13.60 1.28L13.60 1.28L13.60 1.28Q10.05 1.28 7.84-0.67L7.84-0.67L7.84-0.67Q5.63-2.62 5.63-6.66L5.63-6.66L5.63-6.66Q5.63-11.33 8.19-19.01L8.19-19.01L8.19-19.01Q10.75-26.62 14.59-32.45L14.59-32.45L14.59-32.45Q12.74-32.64 10.82-32.64L10.82-32.64L10.82-32.64Q6.85-32.64 6.21-31.17ZM33.60-0.32L33.60-0.32L41.66-42.24L41.66-42.24Q49.22-42.88 54.08-42.88L54.08-42.88L54.08-42.88Q58.94-42.88 62.08-42.46L62.08-42.46L62.08-42.46Q65.22-42.05 67.33-40.96L67.33-40.96L67.33-40.96Q71.55-38.91 71.55-33.28L71.55-33.28L71.55-33.28Q71.55-30.02 68.74-27.26L68.74-27.26L68.74-27.26Q66.11-24.77 63.23-24.19L63.23-24.19L63.23-24.19Q66.30-23.68 68.48-21.38L68.48-21.38L68.48-21.38Q70.78-18.94 70.78-15.17L70.78-15.17L70.78-15.17Q70.78-7.87 65.34-3.62L65.34-3.62L65.34-3.62Q59.90 0.64 49.22 0.64L49.22 0.64L49.22 0.64Q41.86 0.64 33.60-0.32ZM51.01-20.61L47.81-4.03L47.81-4.03Q48.38-3.97 48.51-3.97L48.51-3.97L49.09-3.97L49.09-3.97Q54.34-3.97 56.58-7.42L56.58-7.42L56.58-7.42Q58.24-10.11 58.24-15.04L58.24-15.04L58.24-15.04Q58.24-17.66 56.54-19.07L56.54-19.07L56.54-19.07Q54.85-20.48 51.01-20.61L51.01-20.61ZM60.74-33.22L60.74-33.22L60.74-33.22Q60.74-38.53 55.62-38.53L55.62-38.53L55.04-38.53L55.04-38.53Q54.78-38.53 54.40-38.46L54.40-38.46L51.84-24.96L52.48-24.96L52.48-24.96Q60.74-25.15 60.74-33.22Z" fill="url(#editing-shadow-gradient2)"></path></g></g></g><style>text {
  font-size: 64px;
  font-family: Arial Black;
  dominant-baseline: central;
  text-anchor: middle;
}</style></svg>